<svg id="visual" viewBox="0 0 3840 2160" width="3840" height="2160" xmlns="http://www.w3.org/2000/svg" xmlns:xlink="http://www.w3.org/1999/xlink" version="1.1"><rect x="0" y="0" width="3840" height="2160" fill="#001220"></rect><path d="M0 1614L160 1628.7C320 1643.3 640 1672.7 960 1691.7C1280 1710.7 1600 1719.3 1920 1704.8C2240 1690.3 2560 1652.7 2880 1660.2C3200 1667.7 3520 1720.3 3680 1746.7L3840 1773L3840 2161L3680 2161C3520 2161 3200 2161 2880 2161C2560 2161 2240 2161 1920 2161C1600 2161 1280 2161 960 2161C640 2161 320 2161 160 2161L0 2161Z" fill="#c40c0c"></path><path d="M0 1710L160 1722C320 1734 640 1758 960 1756.3C1280 1754.7 1600 1727.3 1920 1715.5C2240 1703.7 2560 1707.3 2880 1705.5C3200 1703.7 3520 1696.3 3680 1692.7L3840 1689L3840 2161L3680 2161C3520 2161 3200 2161 2880 2161C2560 2161 2240 2161 1920 2161C1600 2161 1280 2161 960 2161C640 2161 320 2161 160 2161L0 2161Z" fill="#ce230b"></path><path d="M0 1806L160 1817.2C320 1828.3 640 1850.7 960 1843.2C1280 1835.7 1600 1798.3 1920 1780.5C2240 1762.7 2560 1764.3 2880 1775.8C3200 1787.3 3520 1808.7 3680 1819.3L3840 1830L3840 2161L3680 2161C3520 2161 3200 2161 2880 2161C2560 2161 2240 2161 1920 2161C1600 2161 1280 2161 960 2161C640 2161 320 2161 160 2161L0 2161Z" fill="#d8320a"></path><path d="M0 1912L160 1904.2C320 1896.3 640 1880.7 960 1882.2C1280 1883.7 1600 1902.3 1920 1914.8C2240 1927.3 2560 1933.7 2880 1919.8C3200 1906 3520 1872 3680 1855L3840 1838L3840 2161L3680 2161C3520 2161 3200 2161 2880 2161C2560 2161 2240 2161 1920 2161C1600 2161 1280 2161 960 2161C640 2161 320 2161 160 2161L0 2161Z" fill="#e24008"></path><path d="M0 1923L160 1921.2C320 1919.3 640 1915.7 960 1914.8C1280 1914 1600 1916 1920 1916.2C2240 1916.3 2560 1914.7 2880 1912.5C3200 1910.3 3520 1907.7 3680 1906.3L3840 1905L3840 2161L3680 2161C3520 2161 3200 2161 2880 2161C2560 2161 2240 2161 1920 2161C1600 2161 1280 2161 960 2161C640 2161 320 2161 160 2161L0 2161Z" fill="#ec4d06"></path><path d="M0 2041L160 2031.2C320 2021.3 640 2001.7 960 1998.7C1280 1995.7 1600 2009.3 1920 2022.8C2240 2036.3 2560 2049.7 2880 2047C3200 2044.3 3520 2025.7 3680 2016.3L3840 2007L3840 2161L3680 2161C3520 2161 3200 2161 2880 2161C2560 2161 2240 2161 1920 2161C1600 2161 1280 2161 960 2161C640 2161 320 2161 160 2161L0 2161Z" fill="#f65903"></path><path d="M0 2053L160 2059C320 2065 640 2077 960 2077.5C1280 2078 1600 2067 1920 2063.8C2240 2060.7 2560 2065.3 2880 2069.3C3200 2073.3 3520 2076.7 3680 2078.3L3840 2080L3840 2161L3680 2161C3520 2161 3200 2161 2880 2161C2560 2161 2240 2161 1920 2161C1600 2161 1280 2161 960 2161C640 2161 320 2161 160 2161L0 2161Z" fill="#ff6500"></path></svg>